<mxfile host="app.diagrams.net" modified="2023-09-27T03:20:35.352Z" agent="Mozilla/5.0 (Windows NT 10.0; Win64; x64) AppleWebKit/537.36 (KHTML, like Gecko) Chrome/116.0.0.0 Safari/537.36" version="21.8.2" etag="ot02bzXwVPPmlpNNesD8" type="github">
  <diagram name="第 1 页" id="W85m1tSXvpmhPucDmNgN">
    <mxGraphModel>
      <root>
        <mxCell id="0" />
        <mxCell id="1" parent="0" />
      </root>
    </mxGraphModel>
  </diagram>
</mxfile>
